<?xml version="1.0" standalone="no"?>
<!DOCTYPE svg PUBLIC "-//W3C//DTD SVG 20010904//EN"
 "http://www.w3.org/TR/2001/REC-SVG-20010904/DTD/svg10.dtd">
<svg version="1.0" xmlns="http://www.w3.org/2000/svg"
 width="470.000000pt" height="470.000000pt" viewBox="0 0 470.000000 470.000000"
 preserveAspectRatio="xMidYMid meet">
<metadata>
Created by potrace 1.11, written by Peter Selinger 2001-2013
</metadata>
<g transform="translate(0.000000,470.000000) scale(0.100000,-0.100000)"
fill="#000000" stroke="none">
<path d="M1280 4684 c-446 -68 -843 -335 -1070 -720 -89 -150 -161 -343 -185
-495 -3 -19 -10 -59 -15 -89 -5 -31 -9 -491 -9 -1035 0 -915 2 -987 19 -1085
59 -328 191 -586 415 -814 74 -75 257 -219 305 -239 14 -6 41 -21 60 -32 43
-26 235 -106 265 -111 6 -1 37 -9 70 -17 72 -19 108 -26 200 -37 79 -10 2038
-8 2071 2 12 4 39 9 60 12 384 61 772 319 990 658 85 132 180 348 201 458 44
227 42 169 42 1195 0 595 -4 1001 -11 1050 -72 574 -473 1060 -1022 1240 -219
72 -169 69 -1286 71 -834 2 -1021 0 -1100 -12z"/>
</g>
</svg>
